<svg width="60" height="61" viewBox="0 0 60 61" fill="none" xmlns="http://www.w3.org/2000/svg">
<path d="M60 0H0V60.2293H59.9971V0H60Z" fill="#FF0032"/>
<path d="M39.9756 4.5946V7.4013H46.004V18.5758H49.3825V7.4013H55.411V4.5946H39.9756Z" fill="white"/>
<path d="M18.2589 4.63245L13.85 13.8275L9.44116 4.63245H4.62305V18.5324H7.99573V8.58562L12.3059 16.9912H15.3825L19.6927 8.58562V18.5324H23.0654V4.63245H18.2473H18.2589Z" fill="white"/>
<path d="M52.0233 50.9619C51.9624 51.4728 51.7244 51.9517 51.3587 52.3203C50.9813 52.6686 50.514 52.9066 50.0061 53.0053C49.2689 53.1475 48.5229 53.2172 47.7741 53.2114C46.973 53.223 46.1806 53.1127 45.4173 52.8631C44.7904 52.657 44.2563 52.2535 43.8906 51.705C43.5249 51.1564 43.3391 50.3669 43.3391 49.3656V47.9405C43.3391 46.9333 43.5249 46.1409 43.8906 45.5924C44.2563 45.0438 44.7904 44.6403 45.4173 44.4343C46.1806 44.1905 46.973 44.0744 47.7741 44.086C48.5258 44.0744 49.2747 44.1411 50.0061 44.292C50.5082 44.3907 50.9726 44.6287 51.3587 44.977C51.7244 45.3456 51.9595 45.8187 52.0233 46.3325H55.4018C55.3409 45.2615 54.9374 44.2398 54.2408 43.4242C53.5587 42.6725 52.6793 42.1355 51.7041 41.8685C50.4212 41.526 49.1005 41.3693 47.7799 41.3954C46.1603 41.3954 44.7584 41.6334 43.6061 42.092C42.4713 42.5331 41.5164 43.3487 40.9097 44.4081C40.3147 45.4356 40.0042 46.8056 39.981 48.4861V48.8025C39.9984 50.483 40.3147 51.853 40.9097 52.8805C41.5164 53.9399 42.4713 54.7613 43.6061 55.1967C44.7584 55.6581 46.1603 55.8932 47.7799 55.8932C49.1063 55.9194 50.427 55.7626 51.7041 55.4201C52.6851 55.1589 53.5645 54.6162 54.2408 53.8644C54.9287 53.0488 55.338 52.0271 55.4018 50.9561H52.0291L52.0233 50.9619Z" fill="white"/>
</svg>
