<svg width="43" height="43" viewBox="0 0 43 43" fill="none" xmlns="http://www.w3.org/2000/svg">
<mask id="mask0_52_719" style="mask-type:alpha" maskUnits="userSpaceOnUse" x="0" y="0" width="43" height="43">
<circle cx="21.5" cy="21.5" r="21.5" fill="#A58585"/>
</mask>
<g mask="url(#mask0_52_719)">
<rect x="-14.3335" width="75.25" height="59.7222" fill="#FF0032"/>
<path d="M8.36133 36.206C8.36133 30.2266 13.2167 25.3793 19.2061 25.3793H23.7943C29.7837 25.3793 34.6391 30.2266 34.6391 36.206V44.1178C34.6391 50.0973 29.7837 54.9446 23.7943 54.9446H19.2061C13.2167 54.9446 8.36133 50.0973 8.36133 44.1178V36.206Z" fill="#D9D9D9"/>
<path d="M31.3022 19.1331C31.3022 24.4226 27.0071 28.7106 21.7088 28.7106C16.4104 28.7106 12.1153 24.4226 12.1153 19.1331C12.1153 13.8436 16.4104 9.55566 21.7088 9.55566C27.0071 9.55566 31.3022 13.8436 31.3022 19.1331Z" fill="#D9D9D9"/>
</g>
</svg>
